<?xml version="1.0" encoding="UTF-8"?>
<svg id="Capa_2" data-name="Capa 2" xmlns="http://www.w3.org/2000/svg" viewBox="0 0 491.15 175.66">
  <defs>
    <style>
      .cls-1 {
        fill: #e62e4b;
      }

      .cls-1, .cls-2 {
        stroke-width: 0px;
      }

      .cls-2 {
        fill: #201e32;
      }
    </style>
  </defs>
  <g id="Capa_1-2" data-name="Capa 1">
    <g>
      <g>
        <path class="cls-1" d="M55.11,63.13c-.02,1.24-.04,2.48-.04,3.73-.01,22.01,22.64,22.74,23.43.75,0-.24.02-.48.02-.72.03-1.25.04-2.48.03-3.69-.26-22.09-23-22.15-23.44-.07Z"/>
        <path class="cls-1" d="M119.16,71.12c.18-1.1.3-2.27.35-3.51,0-.24.02-.48.02-.72.03-1.25.04-2.48.03-3.69-.26-22.09-23-22.15-23.44-.07-.02,1.24-.04,2.48-.04,3.73,0,5.33,1.33,9.41,3.36,12.22l19.73-7.95Z"/>
        <g>
          <path class="cls-1" d="M170.26,91.49c.52.97.82,2.08.82,3.27v39.99c0,.86-.16,1.67-.44,2.43-1.02,4.66-4.16,14.58-12.54,16.57h0c-32.02,0-118.61,2.32-138.63.34-.1,0-.19.01-.3.01-1.1,0-2.12-.13-3.07-.35h0c-8.38-1.98-11.52-11.91-12.54-16.57-.28-.75-.44-1.57-.44-2.43v-39.99c0-3.68,2.82-6.66,6.31-6.66h3.44c3.48,0,6.31,2.98,6.31,6.66v36.13c0,7.57,6.67,3.71,8.64,2.41.21-.2.39-.33.54-.37.15-.04.38-.19.69-.41,2.02-1.49,2.32-4.38.73-6.32-3.88-4.74-5.77-10.8-6.6-14.38-.37-.95-.58-1.97-.58-3.05v-50.29c0-4.63,3.75-8.38,8.38-8.38h4.57c4.63,0,8.38,3.75,8.38,8.38v45.44c0,10.56,10.92,3.42,12.08,2.63.03-.02.08-.06.11-.07,2.02-1.12,4.7-5.99,4.7-5.99h0c-7.3-7.17-11.85-17.25-11.85-28.44,0-12.36,5.55-23.38,14.24-30.6.04-.03.08-.06.12-.1.32-.26.64-.52.97-.77,0,0,.01-.01.02-.02.33-.26.67-.5,1.01-.75.05-.03.09-.07.14-.1.34-.24.68-.48,1.02-.7.03-.02.07-.04.1-.07.72-.47,1.45-.92,2.2-1.35.03-.02.06-.04.1-.05.37-.21.75-.41,1.13-.61.02-.01.05-.02.07-.04.39-.2.78-.4,1.18-.59,0,0,0,0,.01,0,4.89-2.32,10.34-3.62,16.08-3.62s11.37,1.34,16.32,3.73c12.05,5.82,20.66,17.89,21.89,32.13l4.75-1.92v-8.16c0-4.63,3.75-8.38,8.38-8.38h4.57c4.48,0,8.13,3.52,8.36,7.95l19.81-7.99c1.07-.43,2.16-.74,3.25-.97,0-11.38,0-22.76.02-34.13,0-3.3-.65-6.33-2.69-8.98-3.05-3.95-7.1-5.71-12.05-5.71-48.44.02-96.88,0-145.32.01-.33,0-.66,0-.99.01C5.81.63,0,6.66,0,14.46,0,63.4,0,112.33,0,161.27c0,.77,0,1.55.14,2.3,1.3,7.26,7.01,11.81,14.87,11.81,48.22,0,96.44,0,144.66-.01,1.48,0,2.99-.1,4.42-.44,6.35-1.53,10.54-7.04,10.55-13.82.02-23.8,0-47.59,0-71.39l-4.39,1.77Z"/>
          <path class="cls-1" d="M145.45,132.75c.16.09.29.15.4.18,0,0,9.17,6.83,9.17-2.04v-33.26l-3.41,1.37v9.76c0,1.08-.21,2.1-.58,3.05-.83,3.59-2.72,9.65-6.6,14.39-1.7,2.07-1.3,5.21,1.02,6.55Z"/>
          <path class="cls-1" d="M129.36,107.98l-4.01,1.62c1.61.18,3.1-.18,4.01-1.62Z"/>
        </g>
        <path class="cls-1" d="M92.45,116.4c-1.45,1.24-3.1,1.84-4.68,1.84-.04,0-.08,0-.12,0-4.38-.08-9.09-4.61-9.08-14.38,0-1.23.01-2.45.04-3.68.17-8.64,4.01-13.05,7.88-13.91,1.61-1.74,3.57-3.2,5.83-4.26-1.44-.59-2.93-.9-4.4-.9h-.05c-6.7,0-14,5.93-14.26,18.98h0c-.02,1.26-.04,2.52-.04,3.77,0,13.14,7.25,19.26,13.99,19.38.07,0,.14,0,.21,0,3.55,0,7.28-1.7,10.03-5.26-1.86-.26-3.66-.79-5.35-1.58Z"/>
      </g>
      <g>
        <polygon class="cls-1" points="255.71 84.83 270.24 84.83 270.24 0 249.18 0 233.02 57.17 216.86 0 195.8 0 195.8 84.83 210.33 84.83 210.33 25.71 225.96 75.37 240.08 75.37 255.71 24.59 255.71 84.83"/>
        <polygon class="cls-1" points="307.04 84.83 347.88 84.83 347.88 69.42 307.04 69.42 307.04 50.41 341.46 50.41 341.46 35 307.04 35 307.04 15.4 347.88 15.4 347.88 0 307.04 0 296.83 0 291.06 0 291.06 84.83 296.83 84.83 307.04 84.83"/>
        <polygon class="cls-1" points="419.16 15.4 419.16 0 356.97 0 356.97 15.4 380.07 15.4 380.07 84.83 396.06 84.83 396.06 15.4 419.16 15.4"/>
        <path class="cls-1" d="M433.33,84.83l4.76-13.59h31.08l4.76,13.59h17.21L458.71,0h-10.15l-32.44,84.83h17.21ZM453.63,26.89l10.14,28.94h-20.28l10.14-28.94Z"/>
        <path class="cls-2" d="M208.38,134.56c1.54-1.7,3.71-2.54,6.51-2.54,1.43,0,2.73.32,3.88.97,1.15.65,2.14,1.58,2.95,2.79.81,1.21,1.42,2.7,1.81,4.45h10.36c-.66-3.85-1.84-7.12-3.56-9.81-1.71-2.69-3.88-4.75-6.49-6.17-2.61-1.42-5.6-2.13-8.95-2.13-4.06,0-7.52.77-10.38,2.31-2.86,1.54-5.04,3.76-6.55,6.67-1.51,2.91-2.26,6.44-2.26,10.6v14.39c0,4.14.75,7.66,2.26,10.59,1.51,2.92,3.69,5.15,6.55,6.67,2.86,1.53,6.32,2.29,10.38,2.29,3.36,0,6.33-.71,8.94-2.13,2.6-1.42,4.76-3.48,6.47-6.19,1.71-2.7,2.91-5.97,3.59-9.79h-10.36c-.56,2.62-1.59,4.65-3.1,6.08-1.51,1.43-3.36,2.15-5.54,2.15-2.8,0-4.97-.84-6.51-2.52-1.54-1.68-2.32-4.06-2.32-7.14v-14.39c0-3.08.77-5.46,2.32-7.16Z"/>
        <polygon class="cls-2" points="273.39 144.35 254.35 144.35 254.35 122.68 244.35 122.68 244.35 175.12 254.35 175.12 254.35 153.88 273.39 153.88 273.39 175.12 283.38 175.12 283.38 122.68 273.39 122.68 273.39 144.35"/>
        <path class="cls-2" d="M311.57,122.68l-20.28,52.44h10.76l2.98-8.4h19.43l2.98,8.4h10.76l-20.28-52.44h-6.35ZM308.4,157.19l6.34-17.89,6.34,17.89h-12.68Z"/>
        <polygon class="cls-2" points="369.37 158.02 359.27 122.68 346.1 122.68 346.1 175.12 355.18 175.12 355.18 138.58 364.96 169.28 373.79 169.28 383.56 137.88 383.56 175.12 392.64 175.12 392.64 122.68 379.48 122.68 369.37 158.02"/>
        <path class="cls-2" d="M435.69,124.68c-2.49-1.33-5.42-2-8.77-2h-21.26v52.44h9.99v-20.34h11.27c3.33,0,6.25-.66,8.75-1.98,2.5-1.32,4.45-3.19,5.84-5.59,1.39-2.4,2.08-5.22,2.08-8.44s-.69-6.07-2.08-8.48c-1.39-2.4-3.33-4.27-5.82-5.61ZM431.55,143.47c-1.12,1.19-2.58,1.79-4.38,1.79h-11.53v-13.06h11.53c1.82,0,3.29.6,4.4,1.79,1.11,1.19,1.66,2.78,1.66,4.78s-.56,3.52-1.68,4.71Z"/>
        <path class="cls-2" d="M481.97,124.54c-2.91-1.6-6.3-2.4-10.19-2.4s-7.29.8-10.19,2.4c-2.91,1.6-5.16,3.85-6.77,6.74-1.6,2.9-2.41,6.29-2.41,10.19v14.86c0,3.87.8,7.26,2.41,10.17,1.6,2.91,3.86,5.16,6.77,6.76,2.91,1.6,6.3,2.4,10.19,2.4s7.29-.8,10.19-2.4c2.91-1.6,5.16-3.85,6.77-6.76,1.6-2.91,2.41-6.3,2.41-10.17v-14.86c0-3.9-.8-7.29-2.41-10.19-1.6-2.9-3.86-5.14-6.77-6.74ZM480.79,156.58c0,2.77-.82,4.99-2.46,6.67-1.64,1.68-3.82,2.52-6.55,2.52s-4.91-.84-6.55-2.52c-1.64-1.68-2.46-3.91-2.46-6.67v-15.36c0-2.79.82-5.02,2.46-6.69,1.64-1.67,3.82-2.51,6.55-2.51s4.91.84,6.55,2.51c1.64,1.67,2.46,3.9,2.46,6.69v15.36Z"/>
      </g>
    </g>
  </g>
</svg>